<svg xmlns="http://www.w3.org/2000/svg" viewBox="0 0 639.55 314.46"><defs><style>.cls-1{fill:#fff;}</style></defs><g id="Layer_2" data-name="Layer 2"><g id="ovrh_logo_white" data-name="ovrh logo white"><g id="ovrhd_logo_Zwart" data-name="ovrhd logo Zwart"><path class="cls-1" d="M219.91,42.56A125.75,125.75,0,0,0,48.71,26.29L243.2,169.93l-103-113.59C148.91,45.7,187.32,23.36,219.91,42.56Z"/><path class="cls-1" d="M61.21,158.09,202.54,225,8.05,81.35A125.73,125.73,0,0,0,78.81,242.26C44.83,212.61,38.84,168.61,61.21,158.09Z"/><path class="cls-1" d="M296.6,96.41a163.38,163.38,0,0,1,3.91,32.08l31.93,24.15A162.13,162.13,0,0,0,240.49,5.9,161.63,161.63,0,0,1,296.6,96.41Z"/><path class="cls-1" d="M203.94,280.29a163.14,163.14,0,0,1-30.24,10A161.57,161.57,0,0,1,67.9,278.11a162.05,162.05,0,0,0,164.66,23.82Z"/><path id="O" class="cls-1" d="M288.16,197.15q13.39,0,21.37,3.73A22.34,22.34,0,0,1,321,213.09q3.5,8.49,3.5,22.48T321,258a22.67,22.67,0,0,1-11.46,12.21q-8,3.8-21.37,3.79-13.11,0-21.07-3.79A23,23,0,0,1,255.55,258Q252,249.57,252,235.57t3.57-22.48a22.62,22.62,0,0,1,11.54-12.21Q275.05,197.16,288.16,197.15Zm0,13.7q-6.56,0-10.35,2.16t-5.43,7.52q-1.65,5.35-1.64,15t1.64,15c1.09,3.57,2.9,6.06,5.43,7.44s6,2.09,10.35,2.09,8-.7,10.57-2.09,4.39-3.87,5.44-7.44,1.56-8.59,1.56-15-.52-11.47-1.56-15-2.86-6.08-5.44-7.52S292.63,210.85,288.16,210.85Z"/><path id="V" class="cls-1" d="M410.25,198.94l-25.16,68.79a7,7,0,0,1-2.31,3.13,6,6,0,0,1-3.8,1.19H363.2a6.12,6.12,0,0,1-3.72-1.19,6.75,6.75,0,0,1-2.38-3.13l-25.17-68.79h19.21l15.34,47.95c.69,2.18,1.34,4.39,1.93,6.62s1.14,4.39,1.64,6.48H372c.69-2.18,1.36-4.37,2-6.55s1.26-4.37,1.86-6.55l15.33-47.95Z"/><path id="R" class="cls-1" d="M468.47,197.15A37.49,37.49,0,0,0,453,200.8a67.67,67.67,0,0,0-14.8,9.39l-1.87-11.25h-14v73.11h18V220.74q7.65-3.24,12.95-5A37.91,37.91,0,0,1,465,213.83h5.22L472,197.15Z"/><path id="H" class="cls-1" d="M532.34,197.15a40.84,40.84,0,0,0-16.6,3.73,71.12,71.12,0,0,0-14.5,8.78c.25-1.43.47-3,.66-4.69a98.62,98.62,0,0,0,.52-10.34l-.15-26.81h-18V272.05h18V220.76a106.75,106.75,0,0,1,12.06-6,29.67,29.67,0,0,1,11.31-2.39q4.92,0,6.93,2.24t2,8.18v49.29h18.16v-54.8Q552.74,197.17,532.34,197.15Z"/><path id="D" class="cls-1" d="M621.53,167.82v21c0,3.07.05,6.08.15,9,.06,2,.21,4,.42,6a36.38,36.38,0,0,0-10.25-4.68,53.62,53.62,0,0,0-14.59-2q-9.24,0-15.41,3.5t-9.23,11.77q-3.06,8.25-3,22.7,0,18.91,5.95,28.82t20,9.9a34.53,34.53,0,0,0,17-4.1,46.53,46.53,0,0,0,11.27-8.62l1.61,10.93h14.15V167.82Zm-12.06,90a24.06,24.06,0,0,1-7.15,1,15,15,0,0,1-8.19-2q-3.12-2-4.61-7.15T588,235q0-10,1.56-15.19c1-3.48,2.63-5.83,4.77-7.07a17,17,0,0,1,8.56-1.87,40.83,40.83,0,0,1,10.27,1.2c2.51.65,5.3,1.4,8.34,2.24V251.1q-3.13,2.21-5.66,3.75A28.54,28.54,0,0,1,609.47,257.83Z"/></g></g></g></svg>